<svg width="24" height="24" viewBox="0 0 24 24" fill="none" xmlns="http://www.w3.org/2000/svg">
<path d="M4 22C3.45 22 2.97933 21.8043 2.588 21.413C2.19667 21.0217 2.00067 20.5507 2 20V10C2 9.45 2.196 8.97933 2.588 8.588C2.98 8.19667 3.45067 8.00067 4 8H20C20.55 8 21.021 8.196 21.413 8.588C21.805 8.98 22.0007 9.45067 22 10V20C22 20.55 21.8043 21.021 21.413 21.413C21.0217 21.805 20.5507 22.0007 20 22H4ZM4 20H20V10H4V20ZM4 7V5H20V7H4ZM7 4V2H17V4H7Z" fill="#757575"/>
<path d="M13.4915 13.1711C13.4107 12.9438 13.2616 12.7471 13.0647 12.6078C12.8678 12.4686 12.6327 12.3936 12.3915 12.3931H11.4885C11.2309 12.3917 10.9819 12.486 10.7897 12.6575C10.5975 12.8291 10.4758 13.0658 10.4481 13.322C10.4203 13.5781 10.4885 13.8354 10.6395 14.0441C10.7905 14.2529 11.0135 14.3982 11.2655 14.4521L12.6405 14.7521C12.9216 14.8136 13.1701 14.9769 13.3382 15.2105C13.5063 15.4442 13.5821 15.7317 13.5511 16.0178C13.5201 16.3039 13.3844 16.5685 13.1702 16.7607C12.956 16.9529 12.6783 17.0592 12.3905 17.0591H11.6135C11.1055 17.0591 10.6735 16.7351 10.5135 16.2821M12.0025 12.3931V11.2261M12.0025 18.2261V17.0601" stroke="#757575" stroke-linecap="round" stroke-linejoin="round"/>
</svg>
