<svg width="24" height="24" viewBox="0 0 24 24" fill="none" xmlns="http://www.w3.org/2000/svg">
<path d="M4 20C3.45 20 2.97934 19.8043 2.588 19.413C2.19667 19.0217 2.00067 18.5507 2 18V13C2 12.7167 2.096 12.4793 2.288 12.288C2.48 12.0967 2.71734 12.0007 3 12C3.28267 11.9993 3.52034 12.0953 3.713 12.288C3.90567 12.4807 4.00134 12.718 4 13V18H16V6H11C10.7167 6 10.4793 5.904 10.288 5.712C10.0967 5.52 10.0007 5.28267 10 5C9.99934 4.71734 10.0953 4.48 10.288 4.288C10.4807 4.096 10.718 4 11 4H16C16.55 4 17.021 4.196 17.413 4.588C17.805 4.98 18.0007 5.45067 18 6V10.5L21.15 7.35C21.3167 7.18334 21.5 7.14167 21.7 7.225C21.9 7.30834 22 7.46667 22 7.7V16.3C22 16.5333 21.9 16.6917 21.7 16.775C21.5 16.8583 21.3167 16.8167 21.15 16.65L18 13.5V18C18 18.55 17.8043 19.021 17.413 19.413C17.0217 19.805 16.5507 20.0007 16 20H4ZM6.975 13.375L5.6 15.2C5.46667 15.3667 5.45 15.5417 5.55 15.725C5.65 15.9083 5.8 16 6 16H14C14.2 16 14.35 15.9083 14.45 15.725C14.55 15.5417 14.5333 15.3667 14.4 15.2L12.025 12.025C11.925 11.8917 11.7917 11.825 11.625 11.825C11.4583 11.825 11.325 11.8917 11.225 12.025L9 15L7.775 13.375C7.675 13.2417 7.54167 13.175 7.375 13.175C7.20834 13.175 7.075 13.2417 6.975 13.375ZM4 8H3C2.71667 8 2.47934 7.904 2.288 7.712C2.09667 7.52 2.00067 7.28267 2 7C1.99934 6.71734 2.09534 6.48 2.288 6.288C2.48067 6.096 2.718 6 3 6H4V5C4 4.71667 4.096 4.47934 4.288 4.288C4.48 4.09667 4.71734 4.00067 5 4C5.28267 3.99934 5.52034 4.09534 5.713 4.288C5.90567 4.48067 6.00134 4.718 6 5V6H7C7.28334 6 7.521 6.096 7.713 6.288C7.905 6.48 8.00067 6.71734 8 7C7.99934 7.28267 7.90334 7.52034 7.712 7.713C7.52067 7.90567 7.28334 8.00134 7 8H6V9C6 9.28334 5.904 9.521 5.712 9.713C5.52 9.905 5.28267 10.0007 5 10C4.71734 9.99934 4.48 9.90334 4.288 9.712C4.096 9.52067 4 9.28334 4 9V8Z" fill="#757575"/>
</svg>
